<?xml version="1.0" encoding="UTF-8"?>
<svg xmlns="http://www.w3.org/2000/svg" viewBox="0 0 320 320">
  <defs>
    <style>
      .cls-1 {
        fill: #fff;
      }
    </style>
  </defs>
  <rect class="cls-1" x="21.69565" y="110.47826" width="276.6087" height="99.04348" rx="20" ry="20"/>
  <g>
    <path d="M33.1002,157.97632v-3.18252l28.53129-19.81119v3.74901l-25.15782,17.49749v.31189l25.15782,17.50068v3.74901l-28.53129-19.81437Z"/>
    <path d="M131.49894,180.94973c-3.45463,1.36888-6.84361,2.34631-11.47139,2.34631-10.29824,0-13.42665-6.06151-13.42665-14.99086v-20.46599h-29.26486v20.72656c0,7.2999,2.08574,11.66712,10.42832,11.66712,3.91092,0,6.97409-.7821,9.97243-1.95566l.97743,2.67252c-3.45423,1.36888-6.84361,2.34631-11.40615,2.34631-10.29784,0-13.4919-6.06151-13.4919-14.99086v-20.46599h-11.34091v-2.67212l11.40615-.39105,.52154-12.38398h2.93309v12.38398h29.3301l.45629-12.38398h2.99793v12.38398h19.94445v3.06318h-19.94445v20.72656c0,7.2999,2.08574,11.66712,10.42872,11.66712,3.91052,0,6.97409-.7821,9.97203-1.95566l.97783,2.67252Z"/>
    <path d="M140.5739,178.1694c0-3.22708,2.24368-5.10794,4.68149-5.10794,2.43463,0,4.68149,1.88087,4.68149,5.10794,0,3.24617-2.24686,5.10794-4.68149,5.10794-2.43781,0-4.68149-1.86177-4.68149-5.10794Z"/>
    <path d="M209.3215,140.01775v4.75826h17.40242v3.06318h-17.40242v34.47942h-3.32414v-34.47942h-27.83114v34.47942h-3.32414v-34.47942h-11.27567v-2.67212l11.27567-.39105v-4.4973c0-9.45089,4.62778-15.12135,14.07867-15.12135,3.38938,0,6.64828,.52154,10.49356,2.34631l-1.10791,2.67252c-3.45463-1.62945-5.67045-1.95566-9.19032-1.95566-7.88628,0-10.94986,4.75826-10.94986,11.7972v4.75826h27.83114v-4.4973c0-9.45089,4.62778-15.12135,14.07827-15.12135,3.32414,0,6.64828,.52154,10.49396,2.34631l-1.10831,2.67252c-3.45423-1.62945-5.7357-1.95566-9.25517-1.95566-7.88668,0-10.88462,4.75826-10.88462,11.7972Z"/>
    <path d="M251.30013,126.83854h3.50714l-25.53017,68.00408h-3.50714l25.53017-68.00408Z"/>
    <path d="M258.37169,174.04168l25.15464-17.50068v-.31189l-25.15464-17.49749v-3.74901l28.52811,19.81119v3.18252l-28.52811,19.81437v-3.74901Z"/>
  </g>
</svg>