<?xml version="1.0" encoding="UTF-8"?>
<svg id="_Слой_1" data-name="Слой 1" xmlns="http://www.w3.org/2000/svg" viewBox="0 0 320 320">
  <path d="M28.21739,121.34704v-3.30502l29.62948-20.57373v3.89331l-26.12616,18.17099v.32389l26.12616,18.17429v3.89331l-29.62948-20.57704Z"/>
  <path d="M144.69116,106.71283c-7.44579,0-14.01121,3.92595-17.12495,11.10073-1.15056-7.51313-5.6177-11.10073-13.53735-11.10073-6.22707,0-10.96522,3.5876-15.63562,8.73144h-.13509l.20285-10.28811v-16.92169h-3.58718v58.4137h3.58718v-27.95466c5.61812-5.88871,9.40856-8.73186,14.95892-8.73186,7.71639,0,10.96522,4.19655,10.96522,12.86065v23.82587h3.58718v-9.27305c3.18149,6.56542,9.61182,10.22035,16.71884,10.22035,10.22077,0,18.88446-7.44538,18.88446-20.37337,0-13.06391-8.66369-20.50929-18.88446-20.50929Zm0,37.70157c-8.7992,0-15.16177-6.90418-15.16177-17.19229s6.36257-17.32779,15.16177-17.32779,15.09401,7.03927,15.09401,17.32779-6.29482,17.19229-15.09401,17.19229Z"/>
  <path d="M232.48068,145.22661c-3.58718,1.42157-7.10703,2.36887-11.84518,2.36887-10.69421,0-13.94346-6.22707-13.94346-15.50012v-21.32149h-30.45904v21.52475c0,7.64822,2.16603,12.18353,10.89788,12.18353,4.06104,0,7.17478-.81221,10.35586-2.03052l.94771,2.77498c-3.5876,1.42157-7.03969,2.36887-11.84518,2.36887-10.69462,0-13.94346-6.22707-13.94346-15.50012v-21.32149h-11.84518v-2.77498l11.91293-.33835,.47344-12.9284h3.04599v12.9284h30.45904l.54161-12.9284h3.04599v12.9284h20.71213v3.11333h-20.71213v21.52475c0,7.64822,2.16603,12.18353,10.82972,12.18353,4.12879,0,7.24253-.81221,10.35627-2.03052l1.01505,2.77498Z"/>
  <path d="M110.64452,178.84352c-7.37762,0-13.94346,3.85819-17.05678,10.96522-1.21831-7.37804-5.68587-10.96522-13.6051-10.96522-6.29482,0-10.89747,3.58718-15.43278,8.46084h-.2706l-.4061-7.51354h-6.70092l-24.97643,23.48752h-.33835v-42.91358h-3.5876v58.4137h3.5876v-11.10073l11.30357-10.55912,16.92169,21.65984h4.33205v-27.95466c5.6177-5.88871,9.40814-8.73144,14.95851-8.73144,7.71639,0,10.96522,4.19655,10.96522,12.86065v23.82546h3.65535v-9.13755c3.24883,6.49766,9.54365,10.08526,16.65068,10.08526,10.22077,0,18.88487-7.44538,18.88487-20.37378,0-13.06349-8.6641-20.50887-18.88487-20.50887Zm-49.81735,35.53555l-15.16177-19.62932,15.16177-14.21405v33.84338Zm49.81735,2.16603c-8.7992,0-15.09401-6.90418-15.09401-17.1927s6.29482-17.32779,15.09401-17.32779,15.16177,7.03927,15.16177,17.32779-6.36216,17.1927-15.16177,17.1927Z"/>
  <path d="M177.18072,174.78206v5.00875h18.07225v3.11374h-18.07225v35.8739h-3.45209v-35.8739h-28.83462v35.8739h-3.51943v-35.8739h-11.64234v-2.77498l11.64234-.33876v-4.6704c0-9.81425,4.8055-15.70296,14.62016-15.70296,3.51984,0,6.90418,.5412,10.89747,2.36887l-1.15056,2.77498c-3.58718-1.62442-5.88871-2.03052-9.54365-2.03052-8.19025,0-11.30399,5.00875-11.30399,12.25129v5.00875h28.83462v-4.6704c0-9.81425,4.80591-15.70296,14.62057-15.70296,3.45168,0,6.90377,.5412,10.89747,2.36887l-1.15056,2.77498c-3.5876-1.62442-5.95647-2.03052-9.61182-2.03052-8.18983,0-11.30357,5.00875-11.30357,12.25129Z"/>
  <path d="M254.81268,161.14391h3.64213l-26.51285,70.62161h-3.64213l26.51285-70.62161Z"/>
  <path d="M262.15643,210.16393l26.12286-18.1776v-.32389l-26.12286-18.17099v-3.89331l29.62618,20.57704v3.30502l-29.62618,20.57704v-3.89331Z"/>
</svg>